<svg xmlns="http://www.w3.org/2000/svg">
    <defs>
        <symbol viewBox="0 0 32 32" id="telegram">
            <circle cx="16" cy="16" r="16" />
            <path d="M22.9866 10.2088C23.1112 9.40332 22.3454 8.76755 21.6292 9.082L7.36482 15.3448C6.85123 15.5703 6.8888 16.3483 7.42147 16.5179L10.3631 17.4547C10.9246 17.6335 11.5325 17.541 12.0228 17.2023L18.655 12.6203C18.855 12.4821 19.073 12.7665 18.9021 12.9426L14.1281 17.8646C13.665 18.3421 13.7569 19.1512 14.314 19.5005L19.659 22.8523C20.2585 23.2282 21.0297 22.8506 21.1418 22.1261L22.9866 10.2088Z" fill="white"/>
            <defs>
                <linearGradient id="paint0_linear_87_7225" x1="16" y1="2" x2="16" y2="30" gradientUnits="userSpaceOnUse">
                    <stop stop-color="#37BBFE"/>
                    <stop offset="1" stop-color="#007DBB"/>
                </linearGradient>
            </defs>
        </symbol>
        <symbol viewBox="0 0 98 96" id="github">
            <path fill-rule="evenodd" clip-rule="evenodd" d="M48.854 0C21.839 0 0 22 0 49.217c0 21.756 13.993 40.172 33.405 46.69 2.427.49 3.316-1.059 3.316-2.362 0-1.141-.08-5.052-.08-9.127-13.59 2.934-16.42-5.867-16.42-5.867-2.184-5.704-5.42-7.17-5.42-7.17-4.448-3.015.324-3.015.324-3.015 4.934.326 7.523 5.052 7.523 5.052 4.367 7.496 11.404 5.378 14.235 4.074.404-3.178 1.699-5.378 3.074-6.6-10.839-1.141-22.243-5.378-22.243-24.283 0-5.378 1.94-9.778 5.014-13.2-.485-1.222-2.184-6.275.486-13.038 0 0 4.125-1.304 13.426 5.052a46.97 46.97 0 0 1 12.214-1.63c4.125 0 8.33.571 12.213 1.63 9.302-6.356 13.427-5.052 13.427-5.052 2.67 6.763.97 11.816.485 13.038 3.155 3.422 5.015 7.822 5.015 13.2 0 18.905-11.404 23.06-22.324 24.283 1.78 1.548 3.316 4.481 3.316 9.126 0 6.6-.08 11.897-.08 13.526 0 1.304.89 2.853 3.316 2.364 19.412-6.52 33.405-24.935 33.405-46.691C97.707 22 75.788 0 48.854 0z"/>
        </symbol>
        <symbol viewBox="0 0 56 64" id="linkedin">
            <path xmlns="http://www.w3.org/2000/svg"
                  d="M52 4H3.9875C1.7875 4 0 5.8125 0 8.0375V55.9625C0 58.1875 1.7875 60 3.9875 60H52C54.2 60 56 58.1875 56 55.9625V8.0375C56 5.8125 54.2 4 52 4ZM16.925 52H8.625V25.275H16.9375V52H16.925ZM12.775 21.625C10.1125 21.625 7.9625 19.4625 7.9625 16.8125C7.9625 14.1625 10.1125 12 12.775 12C15.425 12 17.5875 14.1625 17.5875 16.8125C17.5875 19.475 15.4375 21.625 12.775 21.625ZM48.0375 52H39.7375V39C39.7375 35.9 39.675 31.9125 35.425 31.9125C31.1 31.9125 30.4375 35.2875 30.4375 38.775V52H22.1375V25.275H30.1V28.925H30.2125C31.325 26.825 34.0375 24.6125 38.075 24.6125C46.475 24.6125 48.0375 30.15 48.0375 37.35V52Z"/>
        </symbol>
        <symbol viewBox="0 0 50 50" id="upwork">
                <path d="M38.8,24.6c-2.8,0-3.7,2.7-3.9,4.3v0.1l-0.4,1.5c1.2,1,2.7,1.7,4.2,1.7c2,0,3.8-1.7,3.9-3.9C42.6,26.3,40.9,24.6,38.8,24.6   z" transform="matrix(0.9999999999999999, 0, 0, 0.9999999999999999, -3.8775739669799876, -3.51127290725708)"/>
                <path d="M28.9,3.7C15.2,3.7,4.1,14.8,4.1,28.5c0,13.7,11.1,24.8,24.8,24.8c13.7,0,24.8-11.1,24.8-24.8C53.7,14.8,42.6,3.7,28.9,3.7   z M38.8,36.1c-2,0-3.7-0.6-5.2-1.5l-1.7,8H28l2.4-11c-1-1.4-2-3-2.7-4.5v1.7c0,4.1-3.3,7.4-7.3,7.4c-4,0-7.3-3.3-7.3-7.4v-10h3.8   v10c0,2,1.6,3.6,3.6,3.6c2,0,3.6-1.6,3.6-3.6v-10h3.8c0.8,2.5,2.1,5.5,3.8,8.2c1-3.8,3.8-6.1,7.3-6.1c4.1,0,7.5,3.4,7.5,7.5   C46.3,32.7,42.9,36.1,38.8,36.1z" transform="matrix(0.9999999999999999, 0, 0, 0.9999999999999999, -3.8775739669799876, -3.51127290725708)"/>
        </symbol>
    </defs>
</svg>
